<?xml version="1.0" standalone="no"?>
<!DOCTYPE svg PUBLIC "-//W3C//DTD SVG 20010904//EN"
 "http://www.w3.org/TR/2001/REC-SVG-20010904/DTD/svg10.dtd">
<svg version="1.0" xmlns="http://www.w3.org/2000/svg"
 width="520.000000pt" height="520.000000pt" viewBox="0 0 520.000000 520.000000"
 preserveAspectRatio="xMidYMid meet">
<metadata>
Created by potrace 1.14, written by Peter Selinger 2001-2017
</metadata>
<g transform="translate(0.000000,520.000000) scale(0.100000,-0.100000)"
fill="#000000" stroke="none">
<path d="M2006 5003 l-69 -4 7 -77 c10 -121 109 -468 144 -504 4 -4 46 5 93
19 l86 27 7 80 c14 162 64 302 137 378 21 23 38 43 36 44 -2 2 -43 10 -92 18
-102 17 -248 25 -349 19z"/>
<path d="M1763 4975 c-133 -25 -385 -106 -416 -134 -4 -4 40 -54 99 -112 58
-57 182 -186 276 -286 l169 -183 57 48 c32 26 68 54 82 63 l24 15 -38 94 c-47
119 -105 340 -113 436 l-6 74 -31 -1 c-17 -1 -63 -7 -103 -14z"/>
<path d="M2484 4931 c-46 -28 -90 -87 -119 -158 -25 -64 -55 -208 -55 -269 l0
-33 86 -3 86 -3 35 52 c73 110 211 209 343 243 41 11 43 13 25 26 -41 30 -195
104 -278 133 -49 17 -89 31 -90 31 -1 0 -16 -9 -33 -19z"/>
<path d="M1173 4738 c-97 -65 -353 -296 -353 -318 0 -5 24 -11 53 -15 167 -22
365 -95 751 -279 76 -36 142 -66 147 -66 5 0 9 6 9 13 0 6 20 43 44 82 l44 69
-91 101 c-139 152 -471 485 -484 485 -7 0 -61 -33 -120 -72z"/>
<path d="M2828 4706 c-86 -30 -130 -57 -201 -125 -52 -50 -105 -118 -96 -125
2 -1 24 -11 48 -20 25 -10 57 -26 73 -37 l28 -20 30 21 c49 35 151 77 218 90
76 15 218 8 281 -14 24 -9 46 -15 48 -13 6 7 -169 178 -228 223 -68 52 -100
56 -201 20z"/>
<path d="M2913 4446 c-63 -16 -182 -73 -189 -91 -4 -10 39 -78 71 -113 2 -2
21 2 43 8 179 48 384 17 526 -78 l46 -31 0 33 c0 46 -24 121 -52 162 -65 95
-284 149 -445 110z"/>
<path d="M2314 4416 c-9 -23 15 -133 49 -225 l31 -86 12 95 c7 52 22 122 33
154 12 33 21 63 21 68 0 4 -32 8 -70 8 -51 0 -72 -4 -76 -14z"/>
<path d="M2188 4398 c-38 -12 -68 -26 -68 -32 0 -36 218 -301 234 -285 3 3 -8
39 -24 81 -16 42 -38 117 -47 167 -10 50 -20 91 -23 90 -3 0 -35 -10 -72 -21z"/>
<path d="M2496 4392 c-22 -43 -45 -140 -52 -222 -4 -41 -4 -73 -1 -70 3 3 28
39 55 80 28 41 71 95 96 120 25 24 46 48 46 52 0 8 -60 41 -105 58 -21 8 -27
6 -39 -18z"/>
<path d="M763 4348 c-67 -73 -175 -272 -227 -416 -36 -101 -35 -107 13 -82
125 63 333 96 560 87 163 -6 228 -16 451 -66 74 -17 136 -28 139 -25 5 5 50
153 51 167 0 17 -488 239 -647 293 -105 36 -228 63 -289 64 -19 0 -38 -8 -51
-22z"/>
<path d="M2029 4321 c-24 -16 -57 -43 -72 -59 l-29 -30 54 -40 c75 -57 170
-107 260 -136 42 -14 81 -26 86 -26 6 0 -24 35 -67 78 -42 43 -101 114 -130
158 -29 43 -54 80 -55 81 -2 2 -23 -10 -47 -26z"/>
<path d="M2619 4263 c-31 -32 -70 -78 -86 -103 -34 -51 -76 -130 -71 -135 2
-2 33 23 70 54 37 32 95 73 128 92 102 58 97 50 61 102 -18 26 -35 47 -39 47
-4 0 -33 -26 -63 -57z"/>
<path d="M2867 4216 c-59 -17 -61 -19 -49 -43 5 -10 15 -40 21 -68 l12 -50 87
-1 c134 -2 270 -43 377 -113 33 -22 63 -37 67 -35 11 7 38 109 38 146 0 30 -6
38 -64 76 -111 73 -182 95 -321 98 -81 2 -136 -1 -168 -10z"/>
<path d="M1892 4187 c-14 -17 -67 -109 -75 -129 -20 -53 306 -112 466 -85 27
5 47 11 44 13 -3 3 -31 12 -64 21 -84 21 -191 73 -283 136 -57 40 -82 52 -88
44z"/>
<path d="M2687 4140 c-101 -58 -298 -233 -234 -207 103 43 216 83 276 98 41
10 76 20 77 22 4 4 -22 102 -30 116 -10 16 -15 15 -89 -29z"/>
<path d="M3458 4140 c3 -20 25 -58 54 -94 27 -34 67 -96 89 -140 44 -89 48
-85 18 18 -25 86 -43 116 -69 116 -13 0 -28 15 -44 48 -13 26 -31 56 -39 66
-13 18 -14 16 -9 -14z"/>
<path d="M3441 3955 l-23 -86 49 -52 c92 -98 148 -196 187 -329 22 -74 25 -79
25 -43 2 159 -95 450 -187 563 l-27 32 -24 -85z"/>
<path d="M2878 4013 c-15 -4 -18 -17 -18 -84 0 -78 0 -79 28 -84 159 -34 237
-62 326 -119 32 -21 60 -36 61 -34 2 2 22 39 46 82 l43 79 -34 28 c-49 42
-166 96 -240 113 -74 16 -186 27 -212 19z"/>
<path d="M3647 4003 c4 -10 24 -49 44 -88 101 -187 107 -321 34 -765 -26 -162
-52 -330 -58 -374 -11 -77 -10 -78 14 -97 13 -10 27 -19 31 -19 10 0 110 181
183 332 114 237 167 422 168 588 0 114 -16 190 -58 273 -37 75 -69 93 -238
137 -132 35 -128 35 -120 13z"/>
<path d="M2730 3989 c-67 -16 -220 -72 -271 -100 -14 -7 -19 -21 -19 -48 l0
-38 103 24 c61 14 137 24 190 25 l87 1 0 73 c0 40 -3 75 -7 77 -5 3 -42 -4
-83 -14z"/>
<path d="M1769 3930 c-11 -39 -18 -77 -15 -85 4 -12 30 -15 138 -15 199 1 386
41 446 97 21 19 23 23 8 19 -11 -4 -54 -11 -95 -17 -115 -16 -259 2 -398 51
-31 11 -58 20 -60 20 -1 0 -12 -32 -24 -70z"/>
<path d="M824 3886 c-153 -25 -312 -85 -334 -127 -18 -33 -41 -207 -47 -356
-3 -84 -4 -153 -1 -153 3 0 24 24 46 54 85 112 249 206 445 256 152 38 314 58
548 66 l195 7 10 84 c9 80 8 84 -11 88 -11 2 -72 15 -135 29 -63 15 -153 33
-200 42 -117 21 -412 27 -516 10z"/>
<path d="M4044 3874 c73 -178 81 -326 27 -535 -40 -158 -142 -389 -268 -612
-24 -43 -43 -82 -41 -87 2 -4 31 -29 66 -55 l64 -46 77 83 c140 149 191 211
262 317 142 211 219 400 227 562 l5 97 -78 63 c-85 71 -198 148 -289 200 -50
28 -58 30 -52 13z"/>
<path d="M2322 3825 c-62 -35 -164 -106 -159 -112 2 -1 56 16 120 39 l117 41
0 33 c0 19 -3 34 -7 34 -5 0 -36 -16 -71 -35z"/>
<path d="M2160 3813 c-38 -11 -111 -16 -237 -17 -127 -1 -184 -4 -187 -12 -3
-7 -8 -44 -12 -84 l-7 -71 64 6 c145 15 299 60 299 86 0 5 6 9 14 9 7 0 44 23
81 50 72 53 71 56 -15 33z"/>
<path d="M3352 3747 l-44 -84 53 -54 c29 -30 73 -85 97 -123 42 -64 111 -216
112 -243 0 -22 19 -23 54 -2 34 20 36 23 30 62 -30 194 -99 358 -196 461 l-63
67 -43 -84z"/>
<path d="M2585 3795 c-33 -7 -79 -18 -102 -24 l-43 -12 0 -73 0 -72 138 -2
c75 -1 148 -3 162 -4 22 -3 26 3 41 59 9 33 20 80 24 102 l7 41 -84 -1 c-45 0
-110 -6 -143 -14z"/>
<path d="M2855 3796 c-3 -6 -15 -55 -29 -108 l-24 -98 42 -11 c57 -15 158 -62
212 -99 25 -16 49 -30 54 -30 9 0 125 166 136 194 8 20 -111 88 -206 120 -101
33 -180 47 -185 32z"/>
<path d="M2235 3692 l-130 -48 -3 -45 c-4 -71 3 -75 94 -46 44 14 107 31 142
37 l62 13 0 68 c0 59 -2 69 -17 69 -10 -1 -76 -22 -148 -48z"/>
<path d="M3716 3695 c3 -27 9 -77 14 -110 9 -58 9 -57 4 20 -2 44 -8 94 -14
110 -7 25 -8 21 -4 -20z"/>
<path d="M1955 3576 c-50 -23 -121 -60 -158 -80 l-67 -38 31 -44 30 -44 52 31
c49 29 155 80 206 100 18 7 22 14 17 32 -3 12 -6 37 -6 55 0 17 -3 32 -7 32
-5 -1 -49 -20 -98 -44z"/>
<path d="M3215 3519 l-66 -102 34 -36 c62 -66 105 -125 147 -204 23 -43 45
-77 49 -75 3 2 42 23 85 47 72 40 77 45 71 70 -15 60 -68 177 -110 242 -45 70
-121 159 -136 159 -4 0 -37 -46 -74 -101z"/>
<path d="M1753 3593 c-29 -4 -33 -8 -33 -34 0 -16 2 -29 4 -29 2 0 37 15 77
34 l74 35 -45 -1 c-25 -1 -60 -3 -77 -5z"/>
<path d="M1339 3579 c-457 -27 -743 -149 -862 -367 l-28 -52 15 -79 c21 -112
57 -241 67 -241 4 0 27 32 49 70 23 39 69 100 102 135 102 109 176 151 485
273 153 61 323 126 378 145 55 19 108 38 118 42 12 5 17 18 17 46 l0 39 -107
-1 c-60 -1 -165 -5 -234 -10z"/>
<path d="M2493 3573 l-53 -4 0 -115 0 -114 58 0 c31 0 85 -6 118 -13 l62 -13
37 119 c20 65 34 121 31 124 -6 7 -143 23 -176 21 -14 -1 -49 -3 -77 -5z"/>
<path d="M2315 3544 c-58 -14 -186 -53 -194 -60 -4 -4 49 -167 59 -177 4 -5
30 -2 58 6 27 9 75 18 106 22 l56 7 0 109 c0 81 -3 109 -12 108 -7 0 -40 -7
-73 -15z"/>
<path d="M2790 3546 c0 -3 -16 -57 -35 -120 -19 -64 -35 -118 -35 -121 0 -3
25 -16 55 -29 30 -14 74 -38 99 -55 25 -17 47 -31 49 -31 3 0 38 44 78 98 40
53 76 102 81 109 13 17 -92 84 -193 123 -75 29 -99 35 -99 26z"/>
<path d="M4507 3520 c-3 -14 -9 -50 -12 -80 -15 -135 -127 -383 -252 -558 -36
-51 -122 -154 -190 -229 -68 -75 -122 -140 -121 -144 4 -10 118 -129 125 -129
9 0 355 245 448 318 171 132 305 273 321 337 13 52 -141 320 -259 450 -53 57
-55 59 -60 35z"/>
<path d="M1964 3416 c-164 -81 -157 -69 -89 -159 31 -43 61 -77 66 -77 5 0 26
11 47 24 20 13 62 36 92 51 30 15 56 28 57 29 3 3 -53 175 -59 181 -3 3 -54
-19 -114 -49z"/>
<path d="M1530 3416 c-66 -24 -250 -113 -284 -138 -17 -14 -16 -16 28 -42 l47
-28 44 41 c38 35 154 124 225 173 33 23 18 21 -60 -6z"/>
<path d="M1590 3370 c-98 -67 -228 -169 -229 -180 0 -3 28 -21 63 -41 l64 -36
64 64 c34 35 93 88 131 116 37 29 67 54 67 57 0 3 -13 24 -28 47 l-28 43 -104
-70z"/>
<path d="M3050 3283 c-40 -54 -77 -104 -82 -110 -7 -9 4 -28 40 -67 27 -30 62
-75 78 -100 16 -25 33 -46 37 -46 16 0 207 112 207 121 0 37 -114 212 -178
272 l-30 29 -72 -99z"/>
<path d="M1724 3274 c-64 -47 -194 -175 -189 -185 3 -4 50 -33 105 -64 l101
-58 17 24 c9 13 45 54 80 91 43 45 61 71 56 80 -16 27 -107 143 -114 146 -4 1
-29 -14 -56 -34z"/>
<path d="M2285 3283 c-38 -8 -74 -18 -79 -23 -5 -5 8 -58 32 -127 65 -191 52
-172 111 -160 l51 10 0 158 c0 183 11 169 -115 142z"/>
<path d="M2440 3141 l0 -159 46 -7 c26 -3 52 -9 59 -11 8 -3 30 46 64 143 28
81 51 153 51 159 0 14 -97 34 -167 34 l-53 0 0 -159z"/>
<path d="M2655 3123 c-65 -188 -64 -175 -13 -197 24 -11 46 -21 49 -23 7 -4
199 233 199 246 0 18 -154 111 -184 111 -2 0 -25 -62 -51 -137z"/>
<path d="M1105 3176 c-124 -99 -213 -216 -261 -342 -39 -103 -41 -100 83 -94
l107 5 16 55 c34 111 113 243 203 337 l39 41 -28 18 c-57 34 -73 44 -77 44 -1
0 -39 -29 -82 -64z"/>
<path d="M2075 3207 c-77 -42 -105 -60 -105 -68 0 -9 180 -233 189 -237 4 -1
28 9 54 23 l46 26 -50 140 c-27 77 -49 142 -49 145 0 11 -30 1 -85 -29z"/>
<path d="M1045 3198 c-87 -50 -249 -203 -320 -303 -46 -64 -112 -191 -104
-199 2 -3 25 1 49 9 25 7 57 16 71 19 22 5 29 17 53 88 38 116 95 208 194 310
47 48 83 88 81 88 -2 0 -13 -6 -24 -12z"/>
<path d="M3626 3195 c-10 -8 -23 -16 -27 -17 -5 -2 -3 -37 5 -78 8 -41 18
-109 22 -150 l8 -75 12 85 c7 47 15 122 19 168 8 88 2 98 -39 67z"/>
<path d="M845 3131 c-33 -22 -73 -54 -90 -71 -18 -19 7 -4 60 35 96 71 101 75
94 75 -2 0 -31 -18 -64 -39z"/>
<path d="M1279 3107 c-96 -111 -179 -253 -195 -333 l-6 -31 84 -6 c135 -11
148 -10 148 12 0 39 62 191 105 258 50 77 51 74 -36 122 l-55 31 -45 -53z"/>
<path d="M3467 3104 c-68 -40 -78 -49 -73 -67 27 -90 46 -176 55 -243 6 -43
13 -79 15 -81 1 -2 31 0 66 4 l63 6 -6 141 c-6 135 -22 263 -36 278 -3 4 -41
-13 -84 -38z"/>
<path d="M2840 3014 c-47 -58 -91 -114 -98 -123 -11 -16 -7 -24 31 -65 l43
-47 124 71 c69 39 129 75 133 80 5 4 -3 27 -18 51 -28 43 -113 139 -124 139
-3 0 -44 -48 -91 -106z"/>
<path d="M1851 3035 c-39 -41 -71 -79 -71 -84 0 -5 61 -43 135 -86 l136 -78
34 39 c19 22 34 42 35 47 0 10 -182 237 -191 237 -3 0 -39 -34 -78 -75z"/>
<path d="M1476 3027 c-40 -53 -83 -139 -105 -206 -33 -102 -39 -96 107 -111
70 -7 129 -13 132 -13 3 0 19 39 37 86 17 48 39 97 47 109 9 12 16 28 16 34 0
6 -47 39 -105 72 l-105 61 -24 -32z"/>
<path d="M3242 2976 c-51 -29 -95 -55 -97 -58 -3 -3 3 -25 14 -50 10 -25 27
-77 36 -117 16 -65 20 -72 39 -67 12 2 53 8 92 12 40 3 77 9 83 13 22 14 -38
309 -64 317 -6 2 -52 -21 -103 -50z"/>
<path d="M4805 2924 c-85 -112 -241 -242 -565 -469 -85 -59 -156 -109 -158
-110 -2 -2 13 -28 33 -60 20 -31 41 -70 47 -86 5 -16 11 -29 12 -29 29 0 598
143 719 180 l67 21 0 82 c0 45 -7 127 -15 182 -14 94 -68 314 -84 342 -4 9
-23 -9 -56 -53z"/>
<path d="M625 2868 c-72 -78 -76 -85 -71 -118 4 -28 0 -44 -24 -80 -39 -59
-38 -67 5 -34 19 14 35 34 35 43 0 21 63 152 98 205 62 91 55 89 -43 -16z"/>
<path d="M2355 2933 c-11 -2 -26 -6 -32 -8 -9 -3 -1 -37 28 -117 22 -62 42
-114 44 -117 3 -2 5 53 5 122 0 133 1 130 -45 120z"/>
<path d="M2440 2804 c0 -75 2 -135 4 -133 8 8 98 250 95 254 -2 2 -25 6 -51
10 l-48 7 0 -138z"/>
<path d="M1733 2878 c-19 -33 -56 -123 -68 -165 -5 -18 -1 -23 17 -27 54 -12
292 -45 296 -41 2 2 15 27 28 55 l23 50 -22 14 c-31 20 -249 146 -252 146 -2
0 -12 -15 -22 -32z"/>
<path d="M2230 2889 c-19 -12 -37 -23 -39 -25 -3 -3 158 -204 165 -204 5 0
-77 233 -85 242 -4 4 -22 -2 -41 -13z"/>
<path d="M2562 2858 c-11 -29 -32 -84 -47 -122 -19 -50 -22 -66 -11 -57 22 19
156 177 156 185 0 7 -61 46 -72 46 -4 0 -16 -24 -26 -52z"/>
<path d="M2975 2824 c-60 -36 -116 -68 -124 -73 -11 -7 -10 -17 7 -62 11 -30
24 -53 29 -53 4 1 67 9 138 19 72 10 134 21 138 25 16 14 -47 211 -67 209 -6
0 -60 -30 -121 -65z"/>
<path d="M2679 2817 c-9 -12 -53 -64 -99 -115 -45 -52 -80 -95 -78 -97 6 -7
268 145 268 155 0 11 -59 80 -69 80 -3 0 -13 -11 -22 -23z"/>
<path d="M2115 2800 c-16 -16 -27 -32 -24 -34 6 -6 152 -92 189 -111 23 -12
30 -13 24 -3 -17 28 -145 178 -153 178 -4 0 -20 -13 -36 -30z"/>
<path d="M2047 2695 c-16 -34 -22 -65 -13 -65 3 0 66 -11 142 -25 75 -14 138
-24 140 -23 2 3 -224 137 -246 146 -3 1 -14 -14 -23 -33z"/>
<path d="M2678 2653 c-65 -37 -116 -68 -115 -70 3 -3 243 36 265 42 10 4 9 13
-3 42 -9 21 -19 41 -23 45 -4 4 -60 -23 -124 -59z"/>
<path d="M823 2693 c-22 -4 -23 -9 -23 -89 0 -47 7 -117 16 -157 17 -77 96
-255 118 -263 7 -3 46 16 87 41 l75 46 -28 82 c-34 102 -51 213 -46 289 l4 58
-90 -1 c-50 -1 -101 -4 -113 -6z"/>
<path d="M1064 2664 c-17 -90 50 -384 86 -376 39 9 170 49 175 54 3 3 -2 36
-11 74 -9 38 -17 115 -17 171 l-2 103 -30 0 c-16 0 -67 3 -112 6 l-82 7 -7
-39z"/>
<path d="M665 2661 c-65 -23 -75 -43 -75 -156 0 -113 20 -198 67 -288 35 -66
128 -181 142 -175 4 2 29 27 56 56 l49 53 -18 27 c-77 119 -126 279 -126 414
0 85 -1 88 -22 88 -13 -1 -45 -9 -73 -19z"/>
<path d="M1339 2648 c-4 -74 4 -167 18 -230 14 -66 15 -68 41 -61 15 4 67 16
117 27 l89 21 0 125 -1 125 -99 12 c-160 19 -164 19 -165 -19z"/>
<path d="M3493 2673 l-33 -4 0 -87 c0 -48 -3 -117 -6 -153 l-7 -66 54 -25 54
-25 7 21 c6 18 28 280 28 330 0 16 -21 18 -97 9z"/>
<path d="M3310 2655 c-8 -2 -32 -6 -52 -10 l-38 -6 0 -114 c0 -130 -14 -113
113 -139 40 -8 70 -10 73 -4 3 5 8 69 11 143 l6 135 -49 -1 c-27 -1 -56 -3
-64 -4z"/>
<path d="M1644 2594 c-6 -51 1 -162 11 -172 3 -3 201 33 293 53 20 5 22 11 22
64 0 69 13 62 -160 86 -63 8 -125 18 -137 20 -20 5 -22 0 -29 -51z"/>
<path d="M3646 2609 c-3 -17 -6 -50 -6 -73 l0 -41 29 60 c26 54 27 61 13 73
-23 18 -29 15 -36 -19z"/>
<path d="M3000 2611 l-105 -16 -3 -61 -3 -62 138 -26 c76 -14 142 -26 146 -26
4 0 7 47 7 105 l0 105 -37 -1 c-21 -1 -85 -9 -143 -18z"/>
<path d="M3702 2532 c-49 -111 -63 -162 -73 -262 -10 -119 -11 -210 -1 -210 4
0 15 25 25 56 25 79 89 204 155 303 l55 84 -38 32 c-21 18 -50 40 -65 48 l-27
17 -31 -68z"/>
<path d="M488 2547 c-30 -26 -57 -64 -74 -101 -24 -52 -26 -66 -20 -127 16
-174 125 -341 275 -423 l47 -25 28 64 28 65 -57 62 c-63 70 -126 190 -150 283
-8 32 -15 101 -15 152 0 51 -3 93 -7 93 -5 -1 -29 -20 -55 -43z"/>
<path d="M2010 2540 c0 -27 3 -50 8 -50 21 0 282 44 278 47 -4 4 -254 53 -273
53 -9 0 -13 -16 -13 -50z"/>
<path d="M2683 2561 c-56 -9 -105 -19 -107 -22 -3 -3 50 -15 117 -28 67 -13
130 -25 140 -28 14 -4 17 3 17 46 l0 51 -32 -1 c-18 -1 -79 -9 -135 -18z"/>
<path d="M2140 2467 c-123 -22 -125 -22 -122 -47 2 -14 10 -40 17 -57 l14 -33
118 69 c65 37 127 73 138 79 18 10 17 11 -10 11 -16 -1 -86 -10 -155 -22z"/>
<path d="M2571 2486 c9 -8 237 -136 242 -136 9 0 31 79 24 86 -4 4 -62 17
-129 30 -124 24 -145 27 -137 20z"/>
<path d="M3839 2393 c-64 -94 -142 -258 -163 -339 -31 -119 -14 -250 18 -141
37 128 127 261 251 374 l75 67 -57 58 c-32 32 -61 58 -65 58 -4 0 -31 -34 -59
-77z"/>
<path d="M2536 2449 c47 -63 187 -229 193 -229 10 0 61 72 61 86 0 5 -30 26
-68 46 -37 21 -96 54 -132 75 -36 20 -60 30 -54 22z"/>
<path d="M1813 2408 l-153 -30 6 -27 c10 -43 64 -169 77 -180 9 -7 47 10 131
59 65 38 122 72 127 77 6 6 -25 122 -34 129 -1 1 -71 -12 -154 -28z"/>
<path d="M2195 2369 c-65 -38 -121 -72 -123 -74 -7 -7 50 -75 62 -74 6 0 29
22 51 48 22 27 64 76 93 110 30 33 50 61 45 61 -4 -1 -62 -32 -128 -71z"/>
<path d="M2869 2376 l-16 -53 125 -72 c97 -56 127 -70 134 -59 7 11 36 103 54
169 4 14 -18 21 -134 43 -76 14 -140 26 -142 26 -3 0 -12 -24 -21 -54z"/>
<path d="M2270 2307 c-52 -61 -96 -114 -98 -118 -4 -9 68 -59 84 -59 10 0 120
278 112 285 -1 2 -46 -47 -98 -108z"/>
<path d="M2500 2418 c0 -3 23 -68 50 -144 28 -76 50 -140 50 -141 0 -7 79 37
85 47 4 6 -30 57 -76 113 -94 116 -109 134 -109 125z"/>
<path d="M2386 2330 c-16 -41 -41 -107 -56 -147 l-28 -72 51 -11 c28 -6 54 -7
59 -2 5 5 7 76 6 158 l-3 149 -29 -75z"/>
<path d="M2460 2241 c0 -140 1 -152 18 -147 9 2 32 7 50 11 17 4 32 9 32 13 0
9 -91 266 -96 271 -2 2 -4 -64 -4 -148z"/>
<path d="M1506 2342 c-60 -15 -111 -32 -113 -39 -6 -16 66 -169 106 -227 l31
-45 88 50 c48 28 88 52 90 53 1 2 -13 36 -32 77 -19 41 -39 93 -45 117 -7 23
-13 42 -14 41 -1 0 -51 -13 -111 -27z"/>
<path d="M3200 2328 c-9 -37 -34 -111 -53 -158 -5 -11 16 -28 77 -62 46 -27
88 -48 93 -48 11 0 44 98 67 200 18 75 19 74 -73 90 -36 7 -74 14 -83 16 -13
4 -19 -5 -28 -38z"/>
<path d="M4880 2303 c-77 -24 -399 -105 -571 -143 -121 -27 -122 -28 -108 -68
6 -17 14 -61 17 -99 l7 -67 85 -12 c151 -20 377 -84 459 -130 34 -19 46 -22
52 -12 42 67 149 492 137 542 -2 10 -20 8 -78 -11z"/>
<path d="M3434 2292 c-18 -79 -35 -143 -54 -197 l-20 -60 20 -15 c34 -25 110
-63 116 -57 9 8 54 238 54 274 0 33 -16 47 -85 73 -22 8 -25 6 -31 -18z"/>
<path d="M3950 2233 c-89 -85 -159 -181 -196 -273 -13 -33 -24 -62 -24 -66 0
-3 28 20 63 52 74 69 188 143 274 180 35 15 63 31 63 36 0 26 -75 148 -91 148
-5 0 -45 -34 -89 -77z"/>
<path d="M1242 2272 c-66 -20 -82 -29 -77 -41 17 -45 107 -178 177 -260 l28
-32 55 31 c30 17 56 34 59 38 2 4 -18 45 -45 92 -27 46 -59 110 -71 142 -13
32 -27 58 -33 57 -5 0 -47 -12 -93 -27z"/>
<path d="M332 2227 c-26 -69 -62 -241 -62 -295 0 -55 46 -113 140 -177 84 -57
155 -83 249 -92 l64 -6 -6 33 c-4 18 -7 56 -7 85 l0 53 -66 37 c-128 72 -228
199 -269 343 l-22 75 -21 -56z"/>
<path d="M2797 2236 c-20 -25 -37 -49 -37 -54 0 -10 177 -215 189 -220 14 -5
131 150 131 173 0 9 -226 145 -241 145 -2 0 -21 -20 -42 -44z"/>
<path d="M1903 2199 c-68 -39 -123 -75 -123 -79 0 -14 99 -129 121 -141 17 -8
24 -8 33 3 33 36 143 165 155 180 11 15 8 24 -20 63 -18 25 -35 45 -38 45 -3
0 -61 -32 -128 -71z"/>
<path d="M1060 2202 c-25 -15 -57 -35 -70 -45 l-25 -18 75 -73 c42 -40 110
-98 152 -130 l77 -57 28 17 c15 10 30 19 31 20 2 2 -21 33 -50 71 -66 82 -108
144 -137 201 -12 23 -25 42 -29 41 -4 0 -27 -12 -52 -27z"/>
<path d="M2047 2049 c-48 -55 -87 -104 -87 -109 0 -17 152 -110 179 -110 5 0
32 57 59 127 l50 127 -55 33 c-30 18 -55 33 -57 33 -1 0 -41 -45 -89 -101z"/>
<path d="M2675 2124 c-22 -15 -44 -30 -48 -34 -11 -10 91 -270 106 -270 31 0
177 92 177 112 0 10 -180 218 -189 218 -4 0 -24 -12 -46 -26z"/>
<path d="M3097 2077 c-14 -24 -47 -67 -72 -95 l-47 -52 40 -48 c22 -26 58 -65
81 -86 35 -34 42 -37 57 -25 35 28 144 209 144 238 0 7 -60 45 -172 107 -3 2
-18 -15 -31 -39z"/>
<path d="M3554 2025 l-20 -95 33 -20 c44 -26 46 -26 38 12 -4 18 -13 70 -19
116 l-11 83 -21 -96z"/>
<path d="M880 2065 c-55 -56 -51 -64 45 -117 81 -43 270 -112 285 -103 18 11
11 21 -52 67 -35 25 -100 80 -145 122 -44 42 -83 76 -85 76 -2 0 -24 -20 -48
-45z"/>
<path d="M4049 2072 c-42 -21 -105 -59 -140 -84 -70 -50 -155 -135 -126 -124
84 29 284 64 385 66 28 0 1 180 -27 180 -9 0 -51 -17 -92 -38z"/>
<path d="M1645 2051 c-44 -26 -80 -53 -80 -59 0 -16 112 -147 156 -182 l37
-29 67 74 67 75 -77 83 c-43 45 -80 83 -84 84 -3 1 -42 -19 -86 -46z"/>
<path d="M2237 1946 c-27 -69 -46 -129 -43 -135 7 -11 121 -38 181 -43 l40 -3
3 141 3 141 -38 6 c-21 4 -51 9 -68 12 l-30 6 -48 -125z"/>
<path d="M2503 2059 l-43 -10 0 -146 0 -146 53 7 c100 13 167 29 167 40 0 6
-22 67 -49 136 -53 136 -53 136 -128 119z"/>
<path d="M3306 1922 c-19 -39 -57 -99 -84 -135 l-50 -65 77 -76 c42 -42 81
-76 88 -76 22 0 143 281 143 332 0 10 -83 65 -132 86 -4 2 -23 -28 -42 -66z"/>
<path d="M781 1921 c-11 -27 -21 -54 -21 -59 0 -22 164 -52 283 -52 99 0 103
8 17 35 -59 19 -166 71 -215 104 -16 12 -33 21 -36 21 -4 0 -16 -22 -28 -49z"/>
<path d="M1451 1939 l-53 -31 23 -25 c41 -45 203 -183 214 -183 6 0 27 12 48
26 l38 25 -96 101 c-52 55 -95 104 -95 109 0 16 -24 9 -79 -22z"/>
<path d="M1853 1830 c-35 -37 -63 -71 -63 -76 0 -21 240 -178 252 -166 3 4 24
50 46 102 l41 94 -72 39 c-39 21 -83 47 -98 58 -15 10 -31 19 -36 18 -4 0 -36
-31 -70 -69z"/>
<path d="M2875 1849 c-38 -27 -84 -53 -102 -59 l-32 -11 18 -47 c11 -26 35
-82 55 -125 l35 -78 33 17 c53 27 171 111 202 143 l29 30 -83 91 c-45 49 -83
89 -84 89 0 -1 -32 -23 -71 -50z"/>
<path d="M3496 1807 c-16 -45 -48 -124 -73 -176 l-46 -94 24 -18 c42 -31 119
-63 129 -53 26 26 92 357 74 373 -5 4 -25 17 -45 29 l-36 22 -27 -83z"/>
<path d="M1325 1866 c-18 -13 -16 -15 22 -39 62 -40 177 -109 188 -114 6 -3
-30 34 -80 81 -49 47 -95 85 -101 86 -5 0 -19 -6 -29 -14z"/>
<path d="M3930 1860 c-47 -10 -98 -23 -115 -30 -29 -12 -25 -13 70 -30 55 -9
135 -30 178 -45 43 -14 80 -25 82 -23 6 5 35 120 35 135 0 19 -147 15 -250 -7z"/>
<path d="M4206 1804 c-10 -44 -20 -84 -22 -90 -3 -7 25 -33 62 -59 133 -95
221 -202 251 -305 l16 -55 44 50 c58 66 163 223 204 307 33 66 33 68 14 82
-58 44 -352 130 -483 142 l-68 7 -18 -79z"/>
<path d="M263 1699 c6 -144 28 -273 52 -299 36 -40 179 -53 285 -25 55 14 163
57 203 81 17 9 15 14 -17 69 -20 32 -38 66 -41 75 -4 14 -22 18 -83 23 -134
10 -260 68 -361 167 l-44 43 6 -134z"/>
<path d="M1265 1820 c3 -5 11 -10 16 -10 6 0 7 5 4 10 -3 6 -11 10 -16 10 -6
0 -7 -4 -4 -10z"/>
<path d="M752 1745 c2 -36 9 -70 16 -77 16 -16 161 21 249 64 l68 33 -100 6
c-55 4 -128 14 -161 23 -34 9 -65 16 -69 16 -4 0 -5 -29 -3 -65z"/>
<path d="M1272 1733 c85 -89 161 -244 191 -391 9 -41 18 -77 21 -80 10 -9 156
29 156 40 0 20 -92 179 -142 246 -68 91 -103 127 -172 178 -74 55 -104 59 -54
7z"/>
<path d="M2125 1674 c-22 -53 -42 -100 -43 -105 -7 -19 185 -90 281 -104 l47
-7 0 131 c0 128 -1 131 -22 135 -60 10 -185 36 -203 41 -17 5 -25 -7 -60 -91z"/>
<path d="M3810 1767 c0 -2 25 -21 56 -42 30 -21 84 -69 119 -107 l63 -69 20
28 c25 36 52 89 52 102 0 14 -59 38 -145 61 -75 19 -165 34 -165 27z"/>
<path d="M2662 1749 c-13 -5 -63 -14 -111 -21 l-88 -11 -7 -96 c-3 -53 -6
-111 -6 -130 l0 -34 98 5 c107 6 266 43 258 62 -2 6 -26 61 -53 123 -26 62
-52 112 -58 112 -5 0 -20 -4 -33 -10z"/>
<path d="M3631 1683 c-7 -43 -24 -114 -36 -158 -13 -44 -22 -83 -19 -86 6 -10
95 -31 102 -24 12 12 4 195 -13 268 -9 42 -18 77 -19 77 -1 0 -8 -35 -15 -77z"/>
<path d="M3694 1745 c22 -90 30 -154 30 -237 l1 -98 57 0 c31 0 59 3 61 8 16
26 -83 267 -132 322 -19 22 -21 22 -17 5z"/>
<path d="M3770 1737 c0 -3 18 -40 39 -83 22 -44 47 -106 56 -139 9 -33 18 -66
21 -73 3 -10 11 -9 36 4 51 27 88 56 88 72 0 21 -117 139 -182 184 -32 21 -58
37 -58 35z"/>
<path d="M1243 1650 c16 -61 21 -106 21 -238 l1 -162 88 0 c48 0 87 4 87 9 0
5 -11 53 -25 107 -30 119 -89 242 -149 309 l-44 50 21 -75z"/>
<path d="M1470 1648 c74 -88 116 -151 172 -255 23 -43 42 -79 44 -81 3 -4 127
48 138 58 12 12 -79 132 -152 202 -40 39 -88 70 -154 102 -53 25 -99 46 -103
46 -3 0 22 -33 55 -72z"/>
<path d="M1707 1693 l-37 -26 52 -38 c71 -51 245 -159 256 -159 8 0 46 70 40
74 -2 1 -38 24 -81 50 -42 26 -99 65 -127 87 -27 21 -53 39 -57 38 -4 0 -25
-12 -46 -26z"/>
<path d="M1010 1683 c-30 -14 -94 -35 -142 -47 l-88 -22 37 -62 c20 -34 40
-62 44 -62 15 0 115 89 154 136 81 98 81 97 -5 57z"/>
<path d="M1092 1658 c-50 -65 -103 -122 -162 -172 l-45 -38 55 -49 c30 -27 58
-49 62 -49 10 0 55 89 85 169 24 64 55 182 49 188 -2 2 -21 -20 -44 -49z"/>
<path d="M1176 1675 c-21 -89 -60 -199 -95 -272 l-39 -81 56 -25 c32 -13 71
-27 88 -31 l31 -7 6 53 c14 113 3 252 -26 348 l-14 45 -7 -30z"/>
<path d="M3078 1631 c-36 -31 -98 -74 -137 -96 -39 -22 -71 -43 -71 -48 0 -4
25 -57 55 -118 61 -121 56 -118 135 -79 92 47 256 202 248 234 -2 7 -39 46
-83 87 l-80 76 -67 -56z"/>
<path d="M4139 1618 c-12 -24 -32 -58 -45 -75 l-25 -32 26 -51 c61 -121 74
-303 30 -439 -7 -24 -7 -24 51 9 139 77 294 206 294 244 0 47 -32 127 -75 184
-43 59 -142 149 -204 185 l-30 18 -22 -43z"/>
<path d="M1822 1460 c44 -63 53 -68 82 -47 16 12 12 17 -41 53 -86 60 -86 60
-41 -6z"/>
<path d="M2037 1483 c-9 -20 -15 -38 -14 -39 27 -23 355 -164 382 -164 3 0 5
30 5 68 l0 67 -87 18 c-49 10 -127 34 -174 53 -48 19 -88 34 -91 34 -2 0 -11
-17 -21 -37z"/>
<path d="M3255 1394 c-80 -81 -114 -107 -172 -135 -40 -19 -72 -37 -72 -41 -1
-11 69 -126 85 -139 25 -21 192 70 279 153 63 59 146 173 134 182 -2 1 -38 20
-79 42 l-75 40 -100 -102z"/>
<path d="M2750 1454 c-41 -12 -104 -25 -140 -29 -36 -3 -86 -8 -112 -11 l-48
-6 0 -69 c0 -63 2 -70 23 -79 47 -20 180 -40 265 -40 86 0 203 17 201 29 0 3
-26 56 -57 116 l-57 111 -75 -22z"/>
<path d="M4007 1452 c-10 -10 -38 -29 -65 -41 l-47 -22 0 -87 c-1 -48 -7 -109
-14 -137 -23 -84 -88 -198 -148 -260 l-56 -57 44 7 c55 9 218 60 285 90 44 20
53 29 74 76 28 65 39 216 21 298 -15 69 -50 151 -66 151 -6 0 -19 -8 -28 -18z"/>
<path d="M780 1399 c-179 -83 -306 -101 -438 -63 l-22 6 26 -73 c51 -144 179
-379 208 -379 46 0 311 246 390 362 l38 57 -62 58 c-34 32 -65 59 -69 60 -3 1
-35 -12 -71 -28z"/>
<path d="M3514 1334 c-55 -94 -164 -193 -273 -247 -48 -24 -93 -46 -101 -49
-19 -6 39 -77 92 -114 l39 -27 62 29 c116 55 223 156 277 263 32 66 66 168 58
177 -4 3 -21 9 -40 13 -18 5 -42 11 -54 15 -18 5 -27 -3 -60 -60z"/>
<path d="M1913 1374 l-22 -15 71 -117 c315 -522 569 -742 856 -742 55 0 60 2
120 55 65 57 162 162 162 177 0 4 -32 8 -70 8 -143 0 -307 51 -424 133 -76 53
-433 338 -553 441 -48 42 -94 76 -103 75 -8 0 -25 -7 -37 -15z"/>
<path d="M2068 1357 c50 -53 301 -216 335 -217 4 0 7 22 7 48 0 49 0 49 -42
61 -47 14 -168 63 -263 106 l-60 27 23 -25z"/>
<path d="M3714 1355 c-63 -196 -80 -229 -167 -321 -53 -57 -151 -129 -201
-148 -26 -9 -13 -20 62 -46 107 -39 192 -13 294 91 81 83 135 196 150 315 16
122 14 125 -68 122 -37 -2 -68 -7 -70 -13z"/>
<path d="M1780 1304 c-41 -18 -74 -37 -74 -41 1 -4 29 -93 63 -198 67 -209
138 -366 227 -501 70 -108 239 -281 303 -309 l44 -19 81 28 c95 33 257 110
336 160 55 35 55 35 23 36 -88 0 -231 53 -330 121 -71 49 -206 182 -282 279
-81 102 -146 198 -242 357 -39 65 -72 118 -73 119 0 1 -35 -14 -76 -32z"/>
<path d="M968 1217 c-74 -97 -239 -262 -321 -321 -37 -26 -67 -51 -67 -55 0
-14 115 -148 193 -224 74 -72 203 -177 218 -177 4 0 10 21 14 46 8 55 75 300
145 530 29 93 54 176 56 185 3 11 -11 20 -53 33 -32 10 -74 27 -95 37 l-36 18
-54 -72z"/>
<path d="M1570 1234 l-85 -21 3 -39 c38 -513 81 -775 151 -917 l36 -72 60 -8
c90 -12 338 -2 443 19 50 10 92 20 92 23 0 3 -23 21 -50 40 -122 82 -272 280
-374 491 -31 63 -83 201 -117 305 -34 105 -64 192 -68 195 -3 3 -44 -4 -91
-16z"/>
<path d="M2450 1171 c0 -51 0 -52 43 -70 69 -30 204 -60 297 -67 88 -7 260 11
260 26 0 5 -19 39 -42 77 -23 37 -42 69 -43 70 0 1 -27 -5 -60 -13 -109 -25
-278 -17 -427 21 -28 7 -28 7 -28 -44z"/>
<path d="M1246 1198 c-2 -7 -11 -38 -19 -68 -8 -30 -38 -131 -67 -225 -48
-160 -110 -390 -123 -462 -6 -31 -4 -33 66 -71 127 -70 351 -149 471 -167 l48
-8 -20 39 c-65 130 -104 342 -137 734 -9 107 -18 205 -21 218 -4 21 -9 22
-100 22 -67 0 -96 -4 -98 -12z"/>
<path d="M2453 1063 c9 -15 150 -97 212 -123 109 -47 251 -74 392 -74 76 -1
136 3 142 9 6 7 -13 33 -56 78 l-65 69 -46 -12 c-154 -38 -379 -16 -570 58 -9
3 -13 1 -9 -5z"/>
<path d="M2684 872 c7 -12 137 -65 143 -59 2 3 -13 11 -34 20 -21 8 -55 23
-76 32 -22 9 -36 12 -33 7z"/>
<path d="M3185 833 c-38 -8 -95 -12 -155 -10 -87 4 -92 3 -62 -10 17 -7 63
-18 102 -25 66 -11 71 -11 93 10 20 19 35 22 98 22 69 1 72 2 49 15 -30 17
-46 17 -125 -2z"/>
</g>
</svg>
