<svg width="127" height="130" viewBox="0 0 127 130" fill="none" xmlns="http://www.w3.org/2000/svg">
<path d="M87.997 27.1053C86.7763 24.5992 85.3757 22.2435 83.8106 20.0593C82.5438 18.2914 81.1693 16.636 79.6951 15.1044C75.8411 11.1002 71.3066 7.94251 66.2381 5.83453C61.5656 3.89128 56.4392 2.84009 50.9737 2.84009L48.0845 2.93555C41.4737 3.37379 34.9072 5.04551 29.4293 8.13943C23.8402 11.2962 18.7512 16.0867 15.0285 21.3134C11.479 26.2972 9.22996 31.9844 8.17622 38.1787C7.70236 40.9641 7.47022 43.8521 7.47022 46.8247C7.47022 49.3797 7.81599 52.0153 8.35789 54.5805C8.8838 57.07 9.59443 59.4932 10.353 61.712C8.80476 64.016 7.84342 66.1977 6.74472 68.64L4.5348 74.6702C3.01312 80.0009 2.56112 85.5002 3.28055 90.9401C3.94377 95.9549 5.6025 100.919 8.33648 105.655L9.86395 108.11C13.5483 113.62 18.2732 118.478 23.6787 121.685C29.194 124.957 35.8665 126.984 42.2314 127.61C48.3003 128.206 54.3248 127.326 60.1881 125.158C62.8247 124.183 65.4287 122.948 67.9896 121.47C70.1906 120.199 72.2882 118.588 74.227 116.843C76.1086 115.149 77.3956 113.246 78.9275 111.485C81.697 111.674 84.4271 111.632 87.0915 111.363C89.2483 111.144 91.362 110.777 93.4188 110.261C98.7962 108.914 103.785 106.556 108.136 103.213C112.147 100.131 115.617 96.2123 118.351 91.4769L119.714 88.9262C122.644 82.9806 124.488 76.4598 124.563 70.1749C124.639 63.7623 123.058 56.9705 120.417 51.1455C117.9 45.5914 114.125 40.8141 109.316 36.8203C107.154 35.0243 104.782 33.3868 102.221 31.9083C100.02 30.6375 97.5764 29.6262 95.0954 28.8198C92.6877 28.0373 90.2878 27.5516 87.997 27.1053Z" fill="#586994" stroke="white" stroke-width="4"/>
<path d="M91.3637 85.5961C87.4492 83.3464 87.997 71.9574 90.3851 54.3818C90.5261 53.3441 90.642 52.3286 90.735 51.3364M59.1513 29.9821C60.8493 25.3879 66.7394 16.5908 76.7155 18.1556C85.0926 19.4696 88.8798 28.2682 90.1666 34.5449M59.1513 29.9821C58.4468 25.2345 59.509 14.9339 69.3936 11.7123C73.2852 10.2822 76.7787 12.2351 79.6951 15.1044M59.1513 29.9821C57.9767 27.9381 55.7088 22.8851 55.7088 19.0223C55.7088 13.7036 57.3222 3.12049 66.2381 5.83453M59.1513 29.9821C56.6749 28.6199 51.0712 23.7846 48.4677 15.3401C45.2133 4.78456 46.6436 3.54133 48.0845 2.93555M59.1513 29.9821C56.458 30.0383 49.5742 28.4978 43.586 21.8862C36.1009 13.6218 31.0087 8.64442 29.4293 8.13943M59.1513 29.9821C57.0546 31.2384 50.8597 32.8346 42.8538 29.1688C32.8465 24.5865 20.3226 17.713 15.0285 21.3134M59.1513 29.9821C58.8703 30.5809 58.3066 31.3714 57.4518 32.2897M90.1666 34.5449C89.5296 31.008 88.6651 28.4623 87.997 27.1053C86.7763 24.5992 85.3757 22.2435 83.8106 20.0593M90.1666 34.5449C90.3476 35.5494 90.5102 36.6339 90.6448 37.7938M90.1666 34.5449C90.4123 35.743 90.5668 36.8491 90.6448 37.7938M90.6448 37.7938C90.8658 39.6996 91.0112 41.809 91.0378 44.1019M83.8106 20.0593C82.6177 18.3946 81.2371 16.6214 79.6951 15.1044M83.8106 20.0593C82.5438 18.2914 81.1692 16.636 79.6951 15.1044M79.6951 15.1044C75.8411 11.1002 71.3066 7.94251 66.2381 5.83453M66.2381 5.83453C61.5656 3.89128 56.4392 2.84009 50.9737 2.84009C50.0029 2.84009 49.0395 2.87224 48.0845 2.93555M48.0845 2.93555C41.4737 3.37379 34.9072 5.04551 29.4293 8.13943M29.4293 8.13943C23.8402 11.2962 18.7512 16.0867 15.0285 21.3134M15.0285 21.3134C11.479 26.2972 9.22996 31.9844 8.17622 38.1787M57.4518 32.2897C55.0184 33.8895 47.4134 36.3784 36.4607 33.5356C22.7698 29.9821 10.2161 32.8456 8.17622 38.1787M57.4518 32.2897C57.0604 32.7101 56.608 33.1573 56.0938 33.6251M8.17622 38.1787C7.70236 40.9641 7.47022 43.8521 7.47022 46.8247C7.47022 49.3797 7.81599 52.0153 8.35789 54.5805M51.2784 37.2865C47.6909 39.6195 42.8748 42.0644 36.7616 44.1019C34.8975 44.7232 33.142 45.3889 31.4911 46.0864M51.2784 37.2865C49.3585 38.4737 47.1754 39.7515 37.9313 39.8107C26.3762 39.8847 9.91707 41.2224 8.35789 54.5805M51.2784 37.2865C51.9746 36.8337 52.6245 36.3852 53.2287 35.9446M8.35789 54.5805C8.8838 57.07 9.59443 59.4932 10.353 61.712C10.9257 60.8606 11.7546 59.7926 12.8645 58.5884M56.0938 33.6251C57.4977 32.4301 60.7324 29.6551 62.4399 28.1154C64.5743 26.1909 74.261 19.3907 84.2937 27.5292C88.7097 31.1115 90.7505 38.7815 91.0378 44.1019M56.0938 33.6251C55.661 34.0188 55.1845 34.4271 54.6637 34.8463M91.0378 44.1019C91.0638 46.3441 90.9763 48.7618 90.735 51.3364M12.8645 58.5884C13.7049 56.5654 16.7927 51.95 22.4209 49.6721C29.4561 46.8247 29.8252 46.7649 31.4911 46.0864M12.8645 58.5884C16.2397 54.9267 22.2143 50.0056 31.4911 46.0864M90.735 51.3364C90.6687 48.986 90.0282 43.2863 87.997 39.2901C85.4579 34.2948 77.6026 26.4354 65.6862 29.9821C62.5392 30.9187 57.2099 33.349 54.6637 34.8463M53.2287 35.9446C53.7396 35.572 54.2179 35.2051 54.6637 34.8463M53.2287 35.9446C53.2719 35.7434 53.8122 35.347 54.6637 34.8463M27.628 85.0697C22.8209 85.8835 12.296 85.1558 8.65384 75.7341C5.70604 68.1088 10.6588 60.7244 15.2173 56.4082M27.628 85.0697C23.8905 88.0414 14.4855 92.2443 6.76562 85.2826C3.58703 82.6222 3.52187 78.6242 4.5348 74.6702M27.628 85.0697C26.4547 87.1041 23.2362 91.5822 19.9085 93.5035C15.3266 96.1489 5.40237 100.015 3.28055 90.9401M27.628 85.0697C27.6933 87.8928 26.3309 95.1528 20.3585 101.609C12.8931 109.678 11.1066 109.057 9.86395 108.11M27.628 85.0697C29.0237 87.3753 31.1401 94.1057 28.4397 102.582C25.0644 113.178 23.3237 120.066 23.6787 121.685M27.628 85.0697C29.7591 86.2615 34.2331 90.8349 35.0798 99.5945C36.1381 110.544 36.4815 124.814 42.2314 127.61M27.628 85.0697C28.2844 85.0153 29.2475 85.1105 30.4662 85.3944M15.2173 56.4082C12.8993 58.5177 11.4978 60.341 10.7205 61.5084C9.17227 63.8125 7.84342 66.1977 6.74472 68.64M15.2173 56.4082C16.0961 55.6085 17.1066 54.7676 18.2648 53.9058M15.2173 56.4082C16.2912 55.3915 17.3431 54.545 18.2648 53.9058M18.2648 53.9058C19.796 52.7664 21.6876 51.317 23.6496 50.1535C19.2099 53.0486 13.8153 58.8984 12.9382 64.5061C10.9456 77.2465 21.6493 82.2568 24.3749 83.1488C26.5554 83.8625 30.5641 85.2848 32.2959 85.9068M6.74472 68.64C5.90726 70.5016 5.07035 72.5797 4.5348 74.6702M6.74472 68.64C5.85539 70.6169 5.11684 72.6312 4.5348 74.6702M4.5348 74.6702C3.01312 80.0009 2.56112 85.5002 3.28055 90.9401M3.28055 90.9401C3.94377 95.9549 5.6025 100.919 8.33648 105.655C8.8221 106.496 9.33171 107.314 9.86395 108.11M9.86395 108.11C13.5483 113.62 18.2732 118.478 23.6787 121.685M23.6787 121.685C29.194 124.957 35.8665 126.984 42.2314 127.61M42.2314 127.61C48.3003 128.206 54.3248 127.326 60.1881 125.158M30.4662 85.3944C33.0616 86.7071 39.0098 92.0582 42.0396 102.962C45.8268 116.591 54.5733 126.043 60.1881 125.158M30.4662 85.3944C31.0241 85.5244 31.6356 85.694 32.2959 85.9068M60.1881 125.158C62.8247 124.183 65.4287 122.948 67.9896 121.47C70.1906 120.199 72.2882 118.588 74.227 116.843M37.8588 88.2579C41.6632 90.2057 46.1786 93.1624 50.9918 97.4455C52.4594 98.7516 53.9111 99.9414 55.3377 101.025M37.8588 88.2579C39.842 89.3307 42.0348 90.5867 46.7099 98.5664C52.5538 108.541 61.9394 122.136 74.227 116.843M37.8588 88.2579C35.7666 87.1867 33.8894 86.4206 32.2959 85.9068M37.8588 88.2579C32.9257 85.7186 22.4293 79.1426 19.9085 73.1529C16.9165 67.5592 14.7373 54.0223 34.0552 45.1411M74.227 116.843C76.1086 115.149 77.8406 113.328 79.3726 111.567C78.3526 111.495 77.018 111.308 75.4255 110.945M75.4255 110.945C73.2623 111.223 67.7416 110.843 62.9639 107.1C56.9918 102.421 56.7556 102.131 55.3377 101.025M75.4255 110.945C70.5826 109.842 63.3546 107.113 55.3377 101.025M90.8785 85.0624C93.9868 88.8186 98.619 98.2972 92.2807 106.162C87.1508 112.528 78.2794 111.931 72.2622 110.141M90.8785 85.0624C95.3208 86.8133 103.663 92.8568 101.494 103.023C100.779 107.106 97.3495 109.162 93.4188 110.261M90.8785 85.0624C93.2269 85.0613 98.7144 85.6095 102.042 87.5308C106.624 90.1762 114.934 96.8378 108.136 103.213M90.8785 85.0624C93.2907 83.5943 100.259 81.1441 108.836 83.0885C119.558 85.5189 119.913 87.3765 119.714 88.9262M90.8785 85.0624C92.1773 82.7008 96.9478 77.5029 105.639 75.6031C116.503 73.2284 123.338 71.2921 124.563 70.1749M90.8785 85.0624C90.845 82.6209 92.5687 76.4596 99.7315 71.3465C108.685 64.9552 120.871 57.5231 120.417 51.1455M90.8785 85.0624C90.5032 84.5211 89.7334 83.809 89.3684 82.1253M72.2622 110.141C75.2481 111.094 77.5279 111.396 78.9275 111.485C81.697 111.674 84.4271 111.632 87.0915 111.363M72.2622 110.141C71.1303 109.78 69.8968 109.325 68.5713 108.753M72.2622 110.141C70.8448 109.719 69.5858 109.232 68.5713 108.753M68.5713 108.753C66.819 107.997 64.618 107.083 62.6293 105.966C67.3564 108.363 75.1198 110.11 80.4147 108.066C92.4445 103.421 91.4318 91.6465 90.8415 88.84C90.4804 87.1236 89.8102 84.2108 89.3684 82.1253M87.0915 111.363C89.1225 111.157 91.3407 110.843 93.4188 110.261M87.0915 111.363C89.2483 111.144 91.362 110.777 93.4188 110.261M93.4188 110.261C98.7962 108.914 103.785 106.556 108.136 103.213M108.136 103.213C112.147 100.131 115.617 96.2123 118.351 91.4769C118.837 90.6357 119.291 89.7851 119.714 88.9262M119.714 88.9262C122.644 82.9806 124.488 76.4598 124.563 70.1749M124.563 70.1749C124.639 63.7623 123.058 56.9705 120.417 51.1455M120.417 51.1455C117.9 45.5914 114.125 40.8141 109.316 36.8203M89.3684 82.1253C89.2075 79.2213 91.2398 71.7112 99.1675 63.6356C109.077 53.5411 112.89 41.2402 109.316 36.8203M89.3684 82.1253C89.2495 81.7334 89.2077 81.4143 89.1404 81.0163M89.3684 82.1253C89.2824 81.7194 89.2051 81.3447 89.1404 81.0163M89.3684 82.1253C89.3192 86.0438 88.1914 94.8746 84.0741 98.8498C79.9014 103.533 67.4319 109.906 51.1488 97.597M109.316 36.8203C107.154 35.0243 104.782 33.3868 102.221 31.9083C100.02 30.6375 97.5764 29.6262 95.0954 28.8198M88.6962 74.5718C88.6338 72.3179 88.4529 69.8272 93.026 61.7886C98.7423 51.7404 105.823 36.8147 95.0954 28.8198M95.0954 28.8198C92.6877 28.0373 90.2447 27.4478 87.9538 27.0015C88.4008 27.9211 88.9062 29.1704 89.3884 30.7309M89.1404 81.0163C89.1135 80.8577 89.0825 80.6865 89.041 80.4931C89.0693 80.6499 89.1027 80.8253 89.1404 81.0163ZM89.3884 30.7309C90.7108 32.4653 93.1423 37.4362 92.2893 43.4455C91.2231 50.957 91.0899 51.3066 90.8412 53.0875M89.3884 30.7309C90.8546 35.4765 92.1053 43.1006 90.8412 53.0875M90.8412 53.0875C90.6162 54.8647 90.3116 56.7168 89.9144 58.6409M58.9777 66.2579L27.0928 47.7783M58.9777 66.2579C54.1148 60.5017 43.7181 47.8519 41.0348 43.3017V42.0325C40.541 35.1659 42.7475 20.939 55.5239 18.9649C68.3004 16.9909 70.1057 28.4735 69.4114 34.4616C68.7711 38.1226 65.788 49.6072 58.9777 66.2579ZM58.9777 66.2579V29.5264M58.9777 66.2579L51.693 45.3345C50.8121 42.8752 49.5001 37.7681 51.2986 37.0146M58.9777 66.2579C67.5921 56.7857 84.764 35.9537 84.5363 28.4031C84.2517 18.965 79.4954 15.2166 78.2035 13.9311M59.4538 66.5295L91.5674 48.1519M59.4538 66.5295C66.9155 65.2069 83.1678 62.5522 88.4841 62.5148L89.5918 63.1543C95.832 66.1853 107.142 75.2698 102.459 87.3595C97.776 99.4492 86.8497 95.2313 81.9719 91.6111C79.098 89.2104 70.5707 80.8332 59.4538 66.5295ZM59.4538 66.5295L91.5101 85.0372M59.4538 66.5295L81.3664 70.746C83.9544 71.2203 89.0692 72.6542 88.8251 74.5956M59.4538 66.5295C63.4014 78.7829 72.9724 104.191 79.6761 107.798C88.0557 112.307 93.7116 110.065 95.4812 109.591M59.4538 66.6988L59.3125 103.699M59.4538 66.6988C56.8684 73.8221 51.0412 89.2244 48.4155 93.8472L47.3079 94.4867C41.5628 98.3754 28.0405 103.628 19.912 93.5273C11.7834 83.427 20.8994 76.0735 26.4735 73.6593C29.9895 72.3707 41.508 69.1745 59.4538 66.6988ZM59.4538 66.6988L27.3975 85.2065M59.4538 66.6988L44.8459 83.5674C43.1412 85.5715 39.342 89.2842 37.7827 88.102M59.4538 66.6988C46.8683 63.9908 20.0783 59.5753 13.603 63.5775C5.50878 68.5803 4.62217 74.5992 4.14801 76.3689M70.3193 67.1111C70.3193 73.2364 65.3537 78.2021 59.2283 78.2021C53.1029 78.2021 48.1373 73.2364 48.1373 67.1111C48.1373 60.9857 53.1029 56.0201 59.2283 56.0201C65.3537 56.0201 70.3193 60.9857 70.3193 67.1111ZM60.0814 67.1111C60.0814 67.5822 59.6994 67.9642 59.2283 67.9642C58.7571 67.9642 58.3751 67.5822 58.3751 67.1111C58.3751 66.6399 58.7571 66.2579 59.2283 66.2579C59.6994 66.2579 60.0814 66.6399 60.0814 67.1111ZM78.5664 66.6489C78.5664 77.5843 70.8534 86.4492 59.9376 86.4492C49.0218 86.4492 39.0369 77.5843 39.0369 66.6489C39.0369 55.7134 49.0218 46.9197 59.9376 46.9197C70.8534 46.9197 78.5664 55.7134 78.5664 66.6489ZM84.5053 66.5992C83.9131 81.6925 75.5722 94.1276 60.2832 94.1276C48.9988 94.1276 31.3586 80.9322 31.3585 64.8929C31.3585 49.7878 50.6949 40.0945 63.0205 40.0945C75.3647 40.0945 85.1838 49.3086 84.5053 66.5992ZM88.7609 62.6742C88.0471 81.1658 84.0765 99.5153 67.5099 100.091C54.7091 100.536 25.4406 84.0671 24.5508 65.4373C23.6326 46.2111 59.0552 34.1224 66.8244 34.1224C76.8319 34.1224 89.6452 39.767 88.7609 62.6742Z" stroke="white"/>
</svg>
